Coordinates
version=1
nRows=7
nColumns=40
inDegrees=yes

Units are S.I. units (second, meters, Newtons, ...)
Angles are in degrees.

endheader
time	pelvis_tilt	pelvis_list	pelvis_rotation	pelvis_tx	pelvis_ty	pelvis_tz	hip_flexion_r	hip_adduction_r	hip_rotation_r	knee_angle_r	knee_angle_r_beta	ankle_angle_r	subtalar_angle_r	mtp_angle_r	hip_flexion_l	hip_adduction_l	hip_rotation_l	knee_angle_l	knee_angle_l_beta	ankle_angle_l	subtalar_angle_l	mtp_angle_l	lumbar_extension	lumbar_bending	lumbar_rotation	arm_flex_r	arm_add_r	arm_rot_r	elbow_flex_r	pro_sup_r	wrist_flex_r	wrist_dev_r	arm_flex_l	arm_add_l	arm_rot_l	elbow_flex_l	pro_sup_l	wrist_flex_l	wrist_dev_l
     56.01000000	     -5.79668221	     -8.01973276	      0.91927362	      1.05355213	      0.91408642	      0.51581415	     -1.37869761	      6.39290073	    -15.45730114	      9.04636349	      9.04636349	     18.45509739	     12.13153737	     -1.40068272	     34.45191067	    -12.35304342	     -2.84515452	     19.71302619	     19.71302619	      1.71315466	     -9.23947865	      9.47188179	    -10.44542645	      9.09577192	      4.50411267	     46.60539032	    -14.75312484	      3.43474482	    107.82304932	     43.72129999	      0.00000000	      0.00000000	    -20.94766717	     -9.17630359	      3.25466564	     31.72355013	     45.52144916	      0.00000000	      0.00000000
     56.02185714	     -5.68514015	     -7.82303761	      0.87185701	      1.05477832	      0.91297546	      0.51348986	     -1.98018525	      5.97499877	    -15.25103354	      9.42674010	      9.42674010	     18.93845132	     11.93432206	     -1.45537077	     34.05752290	    -11.96486332	     -2.69086450	     20.65472730	     20.65472730	      1.46147613	     -9.76137903	      9.19315906	    -10.25406428	      8.83716832	      4.36593976	     46.48601590	    -14.66396575	      3.51196403	    108.42128941	     43.70581920	      0.00000000	      0.00000000	    -21.38830726	     -9.21267194	      3.34804305	     31.65679627	     45.50212700	      0.00000000	      0.00000000
     56.03371429	     -5.79146131	     -7.67385221	      0.87463320	      1.05564437	      0.91162988	      0.51099781	     -2.00559774	      5.53163823	    -14.95871221	     10.42932149	     10.42932149	     19.67209348	     11.21811546	     -1.12576673	     33.94472236	    -11.47024374	     -1.93642889	     21.51776841	     21.51776841	      0.74846220	    -11.14682184	      8.07964138	     -9.97062850	      8.68924328	      4.23708182	     46.04092533	    -14.68249373	      3.74559055	    110.83501810	     43.65188421	      0.00000000	      0.00000000	    -21.82885362	     -9.33237490	      3.73244298	     32.23052660	     45.44536815	      0.00000000	      0.00000000
     56.04557143	     -5.74123247	     -7.48207521	      0.88010654	      1.05661429	      0.91082981	      0.50848190	     -2.35316230	      5.08002126	    -14.70570847	     11.13683479	     11.13683479	     20.27306803	     10.72193347	     -0.59865989	     33.70820511	    -11.01709552	     -1.37845351	     22.46816739	     22.46816739	      0.29858837	    -12.25013443	      6.80312111	     -9.85752459	      8.43014508	      4.40989256	     45.26638248	    -15.12999470	      3.59830329	    112.63818826	     43.64198086	      0.00000000	      0.00000000	    -21.95779598	     -9.62440866	      4.30087423	     32.79002921	     45.37399995	      0.00000000	      0.00000000
     56.05742857	     -5.60046129	     -7.32332118	      0.92025461	      1.05756111	      0.91039529	      0.50593028	     -2.86655380	      4.67195179	    -14.56580594	     11.68160322	     11.68160322	     20.54508215	     10.42503745	     -0.59127262	     33.55518317	    -10.65253785	     -0.92212234	     23.73933741	     23.73933741	      0.62589549	    -12.96725108	      6.30704528	     -9.80604711	      8.16143693	      4.15948072	     44.69431450	    -15.11838121	      3.63918679	    113.17212104	     43.63216955	      0.00000000	      0.00000000	    -21.97478803	     -9.72901264	      4.43841191	     32.81010715	     45.35754239	      0.00000000	      0.00000000
     56.06928571	     -5.67495002	     -7.07670791	      0.99504166	      1.05818687	      0.91007498	      0.50305927	     -2.92962503	      4.11306849	    -14.33559352	     12.59034008	     12.59034008	     20.81739521	      9.76655073	     -0.47720567	     33.55172036	    -10.10418176	     -0.31837727	     24.78039366	     24.78039366	      0.92370965	    -13.89905400	      5.98121451	     -9.61569439	      7.91488365	      4.14707563	     43.72963740	    -15.52700610	      3.53228026	    114.70928727	     43.61340765	      0.00000000	      0.00000000	    -21.67777972	     -9.91372100	      4.75160600	     33.08239423	     45.32738570	      0.00000000	      0.00000000
     56.08114286	     -5.64573641	     -6.88432981	      1.06282536	      1.05886565	      0.91018974	      0.50020954	     -3.13268521	      3.60544316	    -14.18459682	     13.44124566	     13.44124566	     20.92905249	      9.32222322	     -0.52227310	     33.44705416	     -9.66129274	      0.14146449	     25.85804815	     25.85804815	      1.59734892	    -14.60846488	      5.84414496	     -9.52707240	      7.65939060	      4.14922405	     42.57598165	    -15.95847714	      3.35668502	    115.66714880	     43.61017044	      0.00000000	      0.00000000	    -21.24085715	    -10.10122357	      4.99640412	     33.23133813	     45.30833428	      0.00000000	      0.00000000
